/vscmnt/brussel_pixiu_data/_data_brussel/112/vsc11236/PredSimResults/SUBJ10mtu3D/worker3.mot
version=1
nRows=5
nColumns=50
inDegrees=yes
endheader
                time	         pelvis_tilt	         pelvis_list	     pelvis_rotation	           pelvis_tx	           pelvis_ty	           pelvis_tz	       hip_flexion_r	     hip_adduction_r	      hip_rotation_r	        knee_angle_r	       ankle_angle_r	         mtp_angle_r	       hip_flexion_l	     hip_adduction_l	      hip_rotation_l	        knee_angle_l	       ankle_angle_l	         mtp_angle_l	    lumbar_extension	      lumbar_bending	     lumbar_rotation	 ercspn_r/activation	 intobl_r/activation	 extobl_r/activation	    abd_r/activation	    add_r/activation	hamstrings_r/activation	bifemsh_r/activation	glut_max_r/activation	iliopsoas_r/activation	rect_fem_r/activation	  vasti_r/activation	gastroc_r/activation	 soleus_r/activation	tib_ant_r/activation	 ercspn_l/activation	 intobl_l/activation	 extobl_l/activation	    abd_l/activation	    add_l/activation	hamstrings_l/activation	bifemsh_l/activation	glut_max_l/activation	iliopsoas_l/activation	rect_fem_l/activation	  vasti_l/activation	gastroc_l/activation	 soleus_l/activation	tib_ant_l/activation	
          0.00000000	         -4.76876053	         -1.21149515	          7.54069206	          0.00000000	          0.82255945	         -0.01237151	         31.35928303	         -1.31884976	         -6.19117411	         -6.36765348	          3.91032300	          0.26662880	        -15.54921837	         -0.90039409	          0.27826953	         -5.60411256	          8.45358340	         25.82675521	         -6.15436534	         -0.50146107	         -6.28894119	          0.11469709	          0.17926093	          0.01000001	          0.01000001	          0.11163458	          0.12181736	          0.25686839	          0.02271639	          0.10782002	          0.01000004	          0.01000001	          0.01159831	          0.01000000	          0.28017449	          0.05806656	          0.00999999	          0.01000000	          0.05349574	          0.01000000	          0.01387958	          0.21951659	          0.01099646	          0.32146939	          0.01000005	          0.01000000	          0.30782528	          0.25089875	          0.02455589	
          0.01106243	         -4.80577013	         -1.17144680	          7.63492465	          0.01548600	          0.82111828	         -0.01229638	         31.28420939	         -1.21631081	         -5.95407590	         -7.92457635	          3.64452955	          0.26425699	        -15.71013765	         -0.99043905	         -0.02222196	         -7.16742544	          7.76933080	         27.47989197	         -5.96475340	         -0.08902044	         -6.56505247	          0.09684197	          0.15135503	          0.01000001	          0.00999999	          0.15159867	          0.10465669	          0.21820750	          0.05972889	          0.09103546	          0.01000001	          0.00999999	          0.01925193	          0.01198225	          0.29840594	          0.09463022	          0.00999999	          0.01000000	          0.04516795	          0.01000013	          0.01458790	          0.18534401	          0.01184375	          0.27142561	          0.01000002	          0.01000000	          0.27585691	          0.24077609	          0.02073322	
          0.02212486	         -4.83385973	         -1.14166769	          7.68706736	          0.03126911	          0.81985937	         -0.01214792	         31.04878627	         -1.12365716	         -5.66800159	         -9.38500074	          3.25922704	          0.25480001	        -15.76414252	         -1.09587333	         -0.35715246	         -8.95542766	          6.95744727	         29.08604089	         -5.75376677	          0.34430387	         -6.81562931	          0.08737627	          0.12779329	          0.01000001	          0.03592156	          0.12799902	          0.09150209	          0.18423872	          0.09350802	          0.07686379	          0.01000000	          0.00999999	          0.01625495	          0.01011695	          0.37281949	          0.10554289	          0.00999999	          0.01000000	          0.03813657	          0.01000005	          0.01231801	          0.15649114	          0.01000002	          0.22917225	          0.01000004	          0.01000000	          0.23291372	          0.22488542	          0.01750564	
          0.03318729	         -4.85473650	         -1.11045758	          7.69248830	          0.04714281	          0.81891630	         -0.01188395	         30.73613006	         -1.02626592	         -5.45213528	        -10.68975324	          2.75548834	          0.24198476	        -15.63987969	         -1.20559461	         -0.72663487	        -11.06118044	          6.01318460	         30.56910845	         -5.54638452	          0.77685986	         -7.03527556	          0.10353831	          0.10789945	          0.01000000	          0.08906275	          0.16512087	          0.07725779	          0.15555792	          0.11267872	          0.06489825	          0.01000000	          0.01000000	          0.01372451	          0.00999999	          0.41785694	          0.13476660	          0.00999999	          0.01000000	          0.03219977	          0.01000002	          0.01358764	          0.13212986	          0.01000002	          0.19349655	          0.01000004	          0.01000000	          0.19665558	          0.20771481	          0.01478050	
          0.04424972	         -4.86770565	         -1.07697209	          7.65568761	          0.06296212	          0.81840065	         -0.01151363	         30.42837893	         -0.92372494	         -5.30109448	        -12.02100639	          2.33701678	          0.22692470	        -15.28640381	         -1.32142711	         -1.13357122	        -13.54719172	          4.94047051	         31.80301145	         -5.35481041	          1.20602772	         -7.22268837	          0.10891281	          0.09110253	          0.01000000	          0.12572212	          0.21415523	          0.06651326	          0.13134191	          0.12544139	          0.05479541	          0.01000001	          0.01000004	          0.01158799	          0.01000000	          0.43669416	          0.16559188	          0.00999999	          0.01000000	          0.02718717	          0.02475158	          0.02317168	          0.11156094	          0.01000002	          0.16337456	          0.01000002	          0.01000001	          0.16604181	          0.18123569	          0.01247959	
